<svg width="76" height="76" xmlns="http://www.w3.org/2000/svg" xmlns:xlink="http://www.w3.org/1999/xlink" xml:space="preserve" overflow="hidden"><g transform="translate(-628 -348)"><path d="M675.367 384.417 667.583 384.417 667.583 376.608C667.583 375.734 666.874 375.024 666 375.024 665.126 375.024 664.417 375.734 664.417 376.608L664.417 384.417 656.633 384.417C655.759 384.417 655.05 385.126 655.05 386 655.05 386.874 655.759 387.583 656.633 387.583L664.417 387.583 664.417 395.392C664.417 396.266 665.126 396.976 666 396.976 666.874 396.976 667.583 396.266 667.583 395.392L667.583 387.583 675.367 387.583C676.241 387.583 676.95 386.874 676.95 386 676.95 385.126 676.241 384.417 675.367 384.417Z"/><path d="M665.99 351.167C643.666 351.306 631.249 364.473 631.249 385.971 631.249 408.031 643.355 420.7 666.01 420.833 688.642 420.7 700.333 408.99 700.751 385.971 700.365 363.672 688.027 351.309 665.99 351.167ZM666.01 417.667C645.148 417.543 634.812 407.185 634.416 386 634.796 365.116 645.426 354.463 665.987 354.333 680.152 354.425 697.131 360.002 697.581 385.971 697.195 407.176 686.862 417.543 666.006 417.667Z"/></g></svg>