<svg width="75" height="76" xmlns="http://www.w3.org/2000/svg" xmlns:xlink="http://www.w3.org/1999/xlink" xml:space="preserve" overflow="hidden"><g transform="translate(-503 -336)"><path d="M5.1125 25.6063 5.1125 25.6063C0.890625 27.1344-0.434375 31.0344 0.121875 34.2219 0.678125 37.4094 3.25625 40.625 7.74375 40.625L34.3719 40.625 34.3719 67.2531C34.3719 71.7438 37.5844 74.3156 40.7719 74.875 41.2281 74.9531 41.6969 74.9969 42.1719 74.9969 45.0219 74.9969 48.075 73.5031 49.3844 69.8875L74.5219 0.521875 5.1125 25.6063ZM46.4531 68.825C45.4781 71.5062 43.0812 72.1125 41.3156 71.7938 39.5563 71.4844 37.5 70.1094 37.5 67.25L37.5 37.4969 7.74688 37.4969C4.8875 37.4969 3.5125 35.4406 3.20312 33.6781 2.89375 31.9156 3.4875 29.5156 6.175 28.5437L69.3094 5.72812 46.4531 68.825Z" transform="matrix(-1.86146e-16 -1.01333 1 -1.83697e-16 503 412)"/></g></svg>