<svg width="76" height="76" xmlns="http://www.w3.org/2000/svg" xmlns:xlink="http://www.w3.org/1999/xlink" xml:space="preserve" overflow="hidden"><g transform="translate(-724 -348)"><path d="M785.75 354.333 781 354.333 781 349.583C781 348.709 780.291 348 779.417 348 778.543 348 777.833 348.709 777.833 349.583L777.833 354.333 746.167 354.333 746.167 349.583C746.167 348.709 745.457 348 744.583 348 743.709 348 743 348.709 743 349.583L743 354.333 738.25 354.333C730.393 354.333 724 360.727 724 368.583L724 409.75C724 417.607 730.393 424 738.25 424L750.917 424C751.791 424 752.5 423.291 752.5 422.417 752.5 421.543 751.791 420.833 750.917 420.833L738.25 420.833C732.138 420.833 727.167 415.862 727.167 409.75L727.167 376.5 798.417 376.5C799.291 376.5 800 375.791 800 374.917L800 368.583C800 360.727 793.607 354.333 785.75 354.333ZM796.833 373.333 727.167 373.333 727.167 368.583C727.167 362.472 732.138 357.5 738.25 357.5L785.75 357.5C791.862 357.5 796.833 362.472 796.833 368.583L796.833 373.333ZM786.485 385.151 762.079 409.557C759.986 411.65 758.833 414.434 758.833 417.394L758.833 422.417C758.833 423.291 759.543 424 760.417 424L765.439 424C768.4 424 771.183 422.847 773.276 420.754L797.682 396.349C799.177 394.854 800 392.865 800 390.75 800 388.635 799.177 386.646 797.682 385.151 794.696 382.162 789.474 382.162 786.488 385.151ZM795.44 394.107 771.034 418.512C769.54 420.007 767.551 420.83 765.436 420.83L761.997 420.83 761.997 417.391C761.997 415.276 762.82 413.29 764.315 411.793L788.72 387.387C790.513 385.595 793.645 385.595 795.437 387.387 796.333 388.283 796.827 389.477 796.827 390.747 796.827 392.017 796.333 393.207 795.437 394.107ZM739.83 390.747C739.83 389.873 740.539 389.164 741.414 389.164L769.917 389.164C770.791 389.164 771.5 389.873 771.5 390.747 771.5 391.621 770.791 392.33 769.917 392.33L741.417 392.33C740.543 392.33 739.833 391.621 739.833 390.747ZM755.664 406.58C755.664 407.454 754.954 408.164 754.08 408.164L741.417 408.164C740.543 408.164 739.833 407.454 739.833 406.58 739.833 405.706 740.543 404.997 741.417 404.997L754.083 404.997C754.957 404.997 755.667 405.706 755.667 406.58Z"/></g></svg>