<svg width="75" height="75" xmlns="http://www.w3.org/2000/svg" xmlns:xlink="http://www.w3.org/1999/xlink" xml:space="preserve" overflow="hidden"><defs><clipPath id="clip0"><rect x="151" y="331" width="75" height="75"/></clipPath></defs><g clip-path="url(#clip0)" transform="translate(-151 -331)"><path d="M223.594 345.094C226.812 341.875 226.812 336.625 223.594 333.406 220.375 330.188 215.125 330.188 211.906 333.406L176 369.312 176 381 187.688 381 223.594 345.094ZM214.125 335.625C216.125 333.625 219.375 333.625 221.375 335.625 223.375 337.625 223.375 340.875 221.375 342.875L216.688 347.562 209.438 340.312 214.125 335.625ZM179.125 377.875 179.125 370.625 207.188 342.531 214.438 349.781 186.375 377.875 179.125 377.875ZM226 402.875 226 406C222.062 406 219.781 403.219 217.75 400.75 215.938 398.531 214.375 396.625 211.938 396.625 209.5 396.625 207.906 398.531 206.125 400.75 204.094 403.219 201.812 406 197.875 406 193.938 406 191.656 403.219 189.625 400.75 187.812 398.531 186.25 396.625 183.812 396.625 181.531 396.625 179.656 398.281 177.469 400.219 174.562 402.781 170.938 405.969 165.125 406L165.062 406C157.344 405.969 151.062 399.656 151.062 391.938 151.062 384.219 157.375 377.875 165.125 377.875L169.75 377.875 169.75 381 165.125 381C159.094 381 154.188 385.906 154.188 391.938 154.188 397.969 159.062 402.844 165.094 402.875 169.75 402.875 172.625 400.312 175.406 397.875 177.844 395.719 180.344 393.5 183.812 393.5 187.75 393.5 190.031 396.281 192.062 398.75 193.875 400.969 195.438 402.875 197.875 402.875 200.312 402.875 201.906 400.969 203.688 398.75 205.719 396.281 208 393.5 211.938 393.5 215.875 393.5 218.156 396.281 220.188 398.75 222 400.969 223.562 402.875 226 402.875Z"/></g></svg>