<svg width="76" height="76" xmlns="http://www.w3.org/2000/svg" xmlns:xlink="http://www.w3.org/1999/xlink" xml:space="preserve" overflow="hidden"><g transform="translate(-944 -335)"><path d="M31.4696 42.2276 14.5162 42.2276C14.5107 42.2275 14.5063 42.223 14.5063 42.2174 14.5064 42.2148 14.5074 42.2123 14.5092 42.2105L33.8896 22.83 32.468 21.4084 10.6434 43.233 32.468 65.0576 33.8896 63.636 14.5092 44.2555C14.5053 44.2516 14.5054 44.2452 14.5093 44.2413 14.5112 44.2395 14.5136 44.2384 14.5162 44.2384L31.4696 44.2384C53.9729 44.1636 74.2267 57.8754 82.5157 78.7967L84.3838 78.0486C75.7905 56.3629 54.7958 42.1502 31.4696 42.2276Z" transform="matrix(-1 0 0 1 1029.84 323.837)"/></g></svg>