<svg width="76" height="76" xmlns="http://www.w3.org/2000/svg" xmlns:xlink="http://www.w3.org/1999/xlink" xml:space="preserve" overflow="hidden"><g transform="translate(-360 -336)"><path d="M424.917 342.333 409.083 342.333C402.972 342.333 398 347.305 398 353.417L398 358.816 388.047 342.33C386.904 340.351 384.852 339.167 382.566 339.167 380.279 339.167 378.227 340.351 377.078 342.336L360.858 370.719C359.709 372.73 359.715 375.127 360.877 377.132 362.039 379.136 364.117 380.333 366.435 380.333L376.758 380.333C376.159 382.341 375.833 384.466 375.833 386.667 375.833 398.89 385.78 408.833 398 408.833 410.22 408.833 420.167 398.89 420.167 386.667 420.167 384.466 419.844 382.341 419.242 380.333L424.917 380.333C431.028 380.333 436 375.362 436 369.25L436 353.417C436 347.305 431.028 342.333 424.917 342.333ZM366.431 377.167C365.257 377.167 364.202 376.562 363.613 375.542 363.021 374.526 363.018 373.31 363.604 372.29L379.823 343.917C380.973 341.934 384.149 341.909 385.324 343.939L397.737 364.503C389.026 364.604 381.505 369.76 377.974 377.167L366.431 377.167ZM398 405.667C387.522 405.667 379 397.145 379 386.667 379 376.188 387.522 367.667 398 367.667 408.479 367.667 417 376.188 417 386.667 417 397.145 408.479 405.667 398 405.667ZM432.833 369.25C432.833 373.614 429.284 377.167 424.917 377.167L418.026 377.167C414.897 370.596 408.624 365.798 401.167 364.728L401.167 353.417C401.167 349.053 404.716 345.5 409.083 345.5L424.917 345.5C429.284 345.5 432.833 349.053 432.833 353.417L432.833 369.25Z"/></g></svg>