<svg width="260" height="260" xmlns="http://www.w3.org/2000/svg" xmlns:xlink="http://www.w3.org/1999/xlink" xml:space="preserve" overflow="hidden"><g transform="translate(-927 -1155)"><path d="M1165.33 1361.37 1165.33 1208.62C1177.68 1206.11 1187 1195.17 1187 1182.08 1187 1167.14 1174.86 1155 1159.92 1155 1146.83 1155 1135.89 1164.32 1133.38 1176.67L980.625 1176.67C978.112 1164.32 967.17 1155 954.083 1155 939.144 1155 927 1167.14 927 1182.08 927 1195.17 936.317 1206.11 948.667 1208.62L948.667 1361.37C936.317 1363.89 927 1374.83 927 1387.92 927 1402.86 939.144 1415 954.083 1415 967.17 1415 978.112 1405.68 980.625 1393.33L1133.38 1393.33C1135.89 1405.68 1146.83 1415 1159.92 1415 1174.86 1415 1187 1402.86 1187 1387.92 1187 1374.83 1177.68 1363.89 1165.33 1361.37ZM1133.38 1382.5 980.625 1382.5C978.469 1371.91 970.106 1363.54 959.5 1361.37L959.5 1208.62C970.095 1206.47 978.458 1198.11 980.625 1187.5L1133.38 1187.5C1135.53 1198.09 1143.89 1206.46 1154.5 1208.62L1154.5 1361.37C1143.91 1363.53 1135.54 1371.89 1133.38 1382.5ZM1159.92 1165.83C1168.88 1165.83 1176.17 1173.12 1176.17 1182.08 1176.17 1191.04 1168.88 1198.33 1159.92 1198.33 1150.96 1198.33 1143.67 1191.04 1143.67 1182.08 1143.67 1173.12 1150.96 1165.83 1159.92 1165.83ZM937.833 1182.08C937.833 1173.12 945.124 1165.83 954.083 1165.83 963.043 1165.83 970.333 1173.12 970.333 1182.08 970.333 1191.04 963.043 1198.33 954.083 1198.33 945.124 1198.33 937.833 1191.04 937.833 1182.08ZM954.083 1404.17C945.124 1404.17 937.833 1396.88 937.833 1387.92 937.833 1378.96 945.124 1371.67 954.083 1371.67 963.043 1371.67 970.333 1378.96 970.333 1387.92 970.333 1396.88 963.043 1404.17 954.083 1404.17ZM1159.92 1404.17C1150.96 1404.17 1143.67 1396.88 1143.67 1387.92 1143.67 1378.96 1150.96 1371.67 1159.92 1371.67 1168.88 1371.67 1176.17 1378.96 1176.17 1387.92 1176.17 1396.88 1168.88 1404.17 1159.92 1404.17ZM1100.33 1247.08C1100.33 1250.07 1097.91 1252.5 1094.92 1252.5L1062.42 1252.5 1062.42 1333.75C1062.42 1336.74 1059.99 1339.17 1057 1339.17 1054.01 1339.17 1051.58 1336.74 1051.58 1333.75L1051.58 1252.5 1019.5 1252.5C1016.51 1252.5 1014.08 1250.07 1014.08 1247.08 1014.08 1244.09 1016.51 1241.67 1019.5 1241.67L1094.92 1241.67C1097.91 1241.67 1100.33 1244.09 1100.33 1247.08Z" fill-rule="evenodd"/></g></svg>