<svg width="75" height="75" xmlns="http://www.w3.org/2000/svg" xmlns:xlink="http://www.w3.org/1999/xlink" xml:space="preserve" overflow="hidden"><g transform="translate(-871 -342)"><path d="M892.346 372.656 875.615 372.656C875.61 372.656 875.606 372.652 875.606 372.646 875.606 372.644 875.607 372.641 875.609 372.639L894.734 353.514 893.331 352.111 871.794 373.648 893.331 395.186 894.734 393.783 875.609 374.658C875.605 374.654 875.605 374.647 875.609 374.644 875.61 374.642 875.613 374.641 875.615 374.641L892.346 374.641C914.553 374.567 934.54 388.098 942.72 408.744L944.564 408.006C936.083 386.606 915.365 372.58 892.346 372.656Z"/></g></svg>